<?xml version="1.0" encoding="UTF-8" standalone="no"?>
<!-- Created with Inkscape (http://www.inkscape.org/) -->

<svg
   xmlns:dc="http://purl.org/dc/elements/1.1/"
   xmlns:cc="http://creativecommons.org/ns#"
   xmlns:rdf="http://www.w3.org/1999/02/22-rdf-syntax-ns#"
   xmlns:svg="http://www.w3.org/2000/svg"
   xmlns="http://www.w3.org/2000/svg"
   xmlns:sodipodi="http://sodipodi.sourceforge.net/DTD/sodipodi-0.dtd"
   xmlns:inkscape="http://www.inkscape.org/namespaces/inkscape"
   width="1343.949"
   height="744.64398"
   id="svg2"
   version="1.1"
   inkscape:version="0.48.4 r9939"
   sodipodi:docname="windkessel effect.svg">
  <defs
     id="defs4" />
  <sodipodi:namedview
     id="base"
     pagecolor="#ffffff"
     bordercolor="#666666"
     borderopacity="1.0"
     inkscape:pageopacity="0.0"
     inkscape:pageshadow="2"
     inkscape:zoom="0.24748737"
     inkscape:cx="1918.6019"
     inkscape:cy="117.47771"
     inkscape:document-units="px"
     inkscape:current-layer="layer2"
     showgrid="false"
     inkscape:window-width="1920"
     inkscape:window-height="1017"
     inkscape:window-x="-8"
     inkscape:window-y="-8"
     inkscape:window-maximized="1"
     fit-margin-top="0"
     fit-margin-left="0"
     fit-margin-right="0"
     fit-margin-bottom="0" />
  <metadata
     id="metadata7">
    <rdf:RDF>
      <cc:Work
         rdf:about="">
        <dc:format>image/svg+xml</dc:format>
        <dc:type
           rdf:resource="http://purl.org/dc/dcmitype/StillImage" />
        <dc:title />
      </cc:Work>
    </rdf:RDF>
  </metadata>
  <g
     inkscape:groupmode="layer"
     id="layer2"
     inkscape:label="paths"
     transform="translate(378.2364,-20.908412)">
    <path
       style="fill:#000000;display:inline"
       d="M 130.35982,765.01931 C 64.351137,759.2213 26.028196,744.88701 -7.0882411,713.60832 c -3.0855689,-2.91435 -7.2954999,-6.36036 -9.3554169,-7.65782 -7.362587,-4.63742 -15.388096,-16.12146 -15.4135,-22.05583 -0.01262,-2.94572 -2.501854,-8.63342 -4.891851,-11.17745 l -1.988406,-2.11656 -127.068405,0 c -120.51423,0 -212.66258,0.105 -212.36372,-1.44689 l 0.002,-1.79524 213.9614,-0.0304 128.037485,0 3.014507,3.95228 c 1.842926,2.41624 3.466178,6.05019 4.176672,9.35021 2.016429,9.36576 8.532318,19.74556 13.834279,22.03803 1.344859,0.58149 5.141268,3.53956 8.4364497,6.5735 33.8625553,31.17782 65.5921793,44.28802 122.5741173,50.6458 18.96148,2.11564 38.64057,2.76184 46.49608,1.52681 13.87676,-2.18169 22.59216,-7.50449 26.78635,-16.35939 5.84883,-12.34818 6.86296,-49.96453 1.91907,-71.1821 -0.71897,-3.08557 -1.31343,-5.97941 -1.32104,-6.43075 -0.007,-0.46492 15.08375,-0.61064 34.81571,-0.33618 41.7696,0.58098 44.04713,0.84739 97.94343,11.45656 60.25315,11.86047 83.06903,14.94041 118.59033,16.00863 40.81464,1.2274 73.49156,-2.481 140.87795,-15.98775 58.32716,-11.69093 57.94886,-11.65975 141.88942,-11.69589 l 63.34766,-0.0273 0,-26.10843 0,-26.10843 -70.36032,-0.37295 c -81.92727,-0.43426 -73.97838,0.24841 -133.47422,-11.46297 -70.0239,-13.78375 -86.76573,-15.80516 -130.90292,-15.80516 -43.5211,0 -61.99583,2.18094 -126.22781,14.90117 -61.11777,12.1035 -65.73557,12.57517 -123.23543,12.58739 -42.7362,0.009 -41.31111,0.19681 -46.90939,-6.17928 -3.93196,-4.47825 -7.20669,-11.85724 -12.52962,-28.23312 -2.35859,-7.25619 -7.49998,-20.04669 -11.42531,-28.42335 -11.47132,-24.47978 -12.82707,-28.30051 -18.17802,-51.22858 -2.72405,-11.6722 -5.44975,-17.61673 -11.2734,-24.58632 -6.116767,-7.32039 -6.767298,-9.11182 -6.083761,-16.75368 0.499049,-5.57931 0.360114,-6.38447 -1.250441,-7.24641 -3.161024,-1.69174 -4.498852,-1.07777 -7.01792,3.2207 -2.837564,4.84193 -5.607432,6.76344 -7.49335,5.19826 -0.680172,-0.56449 -1.528329,-3.74978 -1.884797,-7.07842 -0.586379,-5.4756 -0.876198,-6.10934 -3.042464,-6.65303 -1.316883,-0.33052 -3.49234,-0.21504 -4.834338,0.25662 -2.076036,0.72965 -2.528091,1.576 -3.030543,5.67387 -0.829803,6.76768 -3.451452,11.63112 -7.413229,13.75235 -4.466042,2.39121 -7.654697,1.47888 -12.692963,-3.63168 -4.609625,-4.67577 -6.460508,-4.71295 -10.252878,-0.20597 -1.732248,2.05865 -2.264302,3.53805 -1.893296,5.26442 3.928864,18.28202 3.936803,17.94284 -0.609652,26.05672 -3.25636,5.81149 -4.993881,5.97887 -6.798845,0.65493 -2.470101,-7.28583 -10.388914,-11.28209 -21.9978704,-11.10132 -7.4449725,0.11592 -12.0344848,1.51669 -14.8746106,4.53985 -2.39312,2.54736 -2.904315,6.1667 -8.520415,60.32517 l -3.054217,29.45316 -3.465889,5.14261 c -6.111109,9.06757 -11.618643,21.05368 -13.427628,29.22274 l -0.570139,2.57465 -127.365144,-0.2371 -213.3579,-1.12579 0.004,-0.77127 c -0.29884,-1.55183 91.86774,-1.6126 211.48407,-1.6126 l 126.125622,0 1.688031,-5.37637 c 2.059888,-6.56072 7.571574,-17.67412 12.084321,-24.36603 l 3.347749,-4.96434 2.427033,-23.55379 c 5.018884,-48.70705 6.903212,-63.51093 8.368773,-65.74767 2.7202659,-4.15164 8.5231174,-6.2808 18.2416211,-6.69315 7.3443829,-0.31161 9.7733049,-0.0406 14.0253129,1.56487 5.021529,1.89605 9.306991,5.06677 11.044569,8.17165 1.201081,2.14622 2.742126,0.90028 3.955998,-3.19844 0.831692,-2.80825 0.668951,-5.06325 -0.856376,-11.86693 -1.844394,-8.2268 -1.847443,-8.48068 -0.147958,-12.32264 1.91237,-4.32324 5.695184,-6.86062 10.228015,-6.86062 2.088482,0 3.478156,0.83533 5.403121,3.2478 3.600578,4.51248 7.066018,5.846 10.072605,3.87601 3.062362,-2.00655 4.186874,-4.2881 5.209095,-10.56888 0.964381,-5.92535 2.699181,-8.33917 6.610794,-9.19829 3.43392,-0.75422 8.989374,1.04694 10.198693,3.30656 0.510306,0.95353 0.92784,3.44439 0.92784,5.53525 0,4.40979 1.254751,4.89851 3.152834,1.22803 2.309969,-4.46699 4.84913,-6.15807 8.230848,-5.48172 6.175139,1.23502 8.716659,6.12147 6.380189,12.26685 -1.342503,3.53105 -0.282404,6.56826 4.0261,11.53484 8.59793,9.91117 11.64954,16.80907 15.0935,34.11746 2.79664,14.05523 5.3518,21.27466 14.21438,40.16179 8.24108,17.56265 9.3114,20.21877 14.87345,36.90997 6.62419,19.87864 12.06722,28.27779 18.32525,28.27779 1.48365,0 5.29454,-1.05526 8.46864,-2.34501 4.10724,-1.66892 6.0563,-2.05514 6.76032,-1.33958 0.69827,0.7097 0.45539,1.39942 -0.82577,2.345 -1.58814,1.17215 2.09319,1.33786 29.45316,1.32572 50.47294,-0.0224 57.21708,-0.75212 116.35505,-12.58997 60.84497,-12.17954 83.44184,-14.84946 125.7603,-14.8591 43.83733,-0.01 64.41835,2.5145 132.30545,16.22861 20.94138,4.23045 45.7673,8.56215 55.73079,9.72406 4.21582,0.49164 4.29521,0.45232 3.84499,-1.90283 -0.41514,-2.17183 -0.24338,-2.33785 1.77299,-1.71345 1.22796,0.38026 3.91568,1.58411 5.97273,2.67521 3.72979,1.97837 3.99871,1.98457 97.70967,2.25457 99.20132,0.28583 102.02649,0.18866 118.42871,-4.073 27.60846,-7.17327 61.53644,-25.80357 84.75787,-46.54164 6.3055,-5.63121 7.48044,-6.33824 8.62725,-5.19142 1.1468,1.14681 0.28004,2.22444 -6.3646,7.91271 -32.8369,28.11047 -71.11029,46.74611 -104.44248,50.8538 -4.35766,0.53702 -8.46007,0.9764 -9.11645,0.9764 -0.93914,0 -1.19328,5.55035 -1.19328,26.06371 l 0,26.0637 2.92195,0.58439 c 1.60711,0.32141 4.17075,0.58439 5.69698,0.58439 4.62798,0 20.57645,3.55825 29.85391,6.66064 20.14923,6.73794 43.98151,19.34684 61.57439,32.57709 10.24503,7.70449 22.29118,17.92959 22.37982,18.99666 0.0337,0.40184 -0.58326,0.9777 -1.37018,1.2797 -0.91314,0.35037 -3.70474,-1.46542 -7.71392,-5.01749 -21.6232,-19.15749 -49.77864,-35.61473 -75.4746,-44.1159 -22.69473,-7.50825 -13.72536,-6.97481 -123.189,-7.32638 -69.55704,-0.2234 -97.94343,-0.0226 -97.94343,0.69281 0,1.21968 -11.20342,6.65885 -12.30871,5.97577 -1.64105,-1.01426 -0.66442,-2.89679 2.25724,-4.35085 l 3.03882,-1.51237 -4.1428,-0.0598 c -6.45922,-0.0932 -32.56883,4.22994 -61.77617,10.22875 -49.53694,10.17425 -78.03862,14.2514 -111.96875,16.01707 -42.71909,2.22303 -84.24001,-2.15835 -151.70713,-16.00845 -48.54754,-9.96617 -52.52698,-10.44178 -91.8658,-10.97945 -19.10722,-0.26115 -34.35385,-0.11017 -34.34362,0.34008 0.0101,0.44534 0.63724,4.17579 1.39358,8.28988 3.52038,19.14866 2.26951,51.96308 -2.46294,64.61172 -3.58962,9.59411 -11.76013,16.41678 -23.57411,19.68524 -6.02667,1.66734 -27.03174,2.32748 -39.42385,1.23899 z"
       id="path4055"
       inkscape:connector-curvature="0"
       sodipodi:nodetypes="csssscsccccsssssssscssssscccssssssssssssssssssssssssssscssccccscsscsssssssssssssssssssssssssssssssssssssssssscssssccsssscsccsssscssscc" />
    <path
       style="fill:#000000;display:inline"
       d="m 404.49764,726.9524 c -2.66304,-0.27665 -3.48989,-0.75097 -3.27257,-1.87733 0.23979,-1.24281 1.43791,-1.46556 6.83075,-1.26997 3.59697,0.13046 6.69945,0.3967 6.8944,0.59165 0.19497,0.19496 0.10532,1.00375 -0.19921,1.79732 -0.55542,1.44742 -2.34556,1.57981 -10.25337,0.75833 z"
       id="path4053"
       inkscape:connector-curvature="0" />
    <path
       style="fill:#000000;display:inline"
       d="m 422.55383,725.76689 c 0,-1.69194 0.62335,-1.87004 6.54515,-1.87004 5.92179,0 6.54514,0.1781 6.54514,1.87004 0,1.69194 -0.62335,1.87004 -6.54514,1.87004 -5.9218,0 -6.54515,-0.1781 -6.54515,-1.87004 z"
       id="path4051"
       inkscape:connector-curvature="0" />
    <path
       style="fill:#000000;display:inline"
       d="m 385.85426,726.01094 c -4.7132,-0.29576 -5.37637,-0.57719 -5.37637,-2.28157 0,-1.85151 0.32319,-1.91238 6.77891,-1.2768 3.72839,0.36707 6.93606,0.82405 7.12816,1.01551 0.7543,0.75181 -0.82741,3.2236 -1.95621,3.05703 -0.65896,-0.0972 -3.61748,-0.32862 -6.57449,-0.51417 z"
       id="path4049"
       inkscape:connector-curvature="0" />
    <path
       style="fill:#000000;display:inline"
       d="m 443.12429,725.39942 c 0,-1.80019 2.09822,-2.43759 8.02416,-2.43759 4.44275,0 5.06613,0.23009 5.06613,1.87004 0,1.69194 -0.62338,1.87004 -6.54514,1.87004 -4.97114,0 -6.54515,-0.31323 -6.54515,-1.30249 z"
       id="path4047"
       inkscape:connector-curvature="0" />
    <path
       style="fill:#000000;display:inline"
       d="m 463.69475,723.99079 c 0,-1.41627 1.0562,-1.81395 6.22368,-2.34337 3.9313,-0.40278 6.58311,-0.27814 7.19966,0.33838 1.64779,1.64782 -0.43833,2.57424 -7.11195,3.15834 -5.68726,0.49776 -6.31139,0.38371 -6.31139,-1.15335 z"
       id="path4045"
       inkscape:connector-curvature="0" />
    <path
       style="fill:#000000;display:inline"
       d="m 366.1827,723.89396 c -5.95361,-0.76198 -6.74435,-1.16614 -6.01254,-3.07318 0.38295,-0.99795 1.61532,-1.12723 5.49188,-0.5761 2.74897,0.39082 5.69507,0.74131 6.54689,0.77885 1.07705,0.0475 1.39981,0.63781 1.05972,1.9383 -0.26897,1.02852 -0.75552,1.81487 -1.08124,1.74744 -0.32571,-0.0674 -3.02784,-0.43432 -6.00471,-0.81531 z"
       id="path4043"
       inkscape:connector-curvature="0" />
    <path
       style="fill:#000000;display:inline"
       d="m 484.26521,721.7544 c 0,-1.44214 1.17925,-1.83443 9.11439,-3.03196 3.17711,-0.47947 4.08885,-0.29433 4.55683,0.9253 0.32183,0.83858 0.42796,1.68134 0.23581,1.87281 -0.19205,0.19146 -3.39974,0.64844 -7.12813,1.01551 -5.78619,0.56966 -6.7789,0.45519 -6.7789,-0.78166 z"
       id="path4041"
       inkscape:connector-curvature="0" />
    <path
       style="fill:#000000;display:inline"
       d="m 345.18086,720.89101 c -4.81879,-0.74008 -5.84388,-1.21123 -5.84388,-2.68593 0,-2.10311 -0.34722,-2.06643 7.16982,-0.7574 4.82808,0.84078 5.92047,1.35834 5.92047,2.80506 0,0.97573 -0.31557,1.72045 -0.70127,1.65492 -0.38569,-0.0655 -3.33101,-0.52302 -6.54514,-1.01665 z"
       id="path4039"
       inkscape:connector-curvature="0" />
    <path
       style="fill:#000000;display:inline"
       d="m 505.00649,718.55763 c 0.21702,-1.12657 1.9642,-1.94405 5.91242,-2.76632 6.09241,-1.26881 7.94207,-1.05876 7.94207,0.90191 0,0.82244 -2.09828,1.65688 -5.95169,2.3669 -7.74842,1.42771 -8.26811,1.39465 -7.9028,-0.50249 z"
       id="path4037"
       inkscape:connector-curvature="0" />
    <path
       style="fill:#000000;display:inline"
       d="m 324.38591,716.99464 c -3.57355,-0.75337 -5.22802,-1.57382 -5.44492,-2.70013 -0.20527,-1.06583 0.27015,-1.60439 1.39326,-1.5783 2.96768,0.069 11.35902,2.26843 11.44248,2.9992 0.33639,2.94557 0.43348,2.92877 -7.39082,1.27923 z"
       id="path4035"
       inkscape:connector-curvature="0" />
    <path
       style="fill:#000000;display:inline"
       d="m 525.40612,714.70577 c 0,-1.36108 1.3383,-1.99825 6.54515,-3.11621 3.59983,-0.77292 6.54515,-1.2997 6.54515,-1.17063 0,0.12907 0.23992,0.85979 0.53305,1.62382 0.41206,1.0737 -0.95699,1.72805 -6.02845,2.88154 -8.05605,1.83232 -7.5949,1.84558 -7.5949,-0.21852 z"
       id="path4033"
       inkscape:connector-curvature="0" />
    <path
       style="fill:#000000;display:inline"
       d="m 303.33868,712.29803 c -5.30933,-1.27689 -6.64082,-3.91542 -1.87005,-3.70575 4.71056,0.20704 10.90241,2.23168 10.50623,3.43537 -0.50153,1.52376 -3.08796,1.60473 -8.63618,0.27038 z"
       id="path4031"
       inkscape:connector-curvature="0" />
    <path
       style="fill:#000000;display:inline"
       d="m 545.97658,710.06706 c 0,-1.26917 1.45172,-2.06131 5.99732,-3.27257 7.35441,-1.95965 7.09297,-1.96247 7.09297,0.0765 0,1.26918 -1.45171,2.06132 -5.99731,3.27257 -7.35441,1.95965 -7.09298,1.96247 -7.09298,-0.0765 z"
       id="path4029"
       inkscape:connector-curvature="0" />
    <path
       style="fill:#000000;display:inline"
       d="m 284.63826,707.14876 c -3.62493,-1.05678 -5.7171,-2.18787 -5.91244,-3.19646 -0.37617,-1.94229 0.35957,-1.94281 7.32909,-0.005 4.24117,1.17916 5.59601,1.97147 5.59601,3.27258 0,2.02035 0.16686,2.02205 -7.01266,-0.071 z"
       id="path4027"
       inkscape:connector-curvature="0" />
    <path
       style="fill:#000000;display:inline"
       d="m 566.24568,705.51838 c -1.66181,-1.66181 -0.12314,-2.87199 5.58591,-4.39323 5.04219,-1.34356 6.36244,-1.42631 6.97376,-0.43711 0.98093,1.58725 0.29528,2.08599 -4.77814,3.47536 -2.31418,0.63375 -4.86922,1.34045 -5.67773,1.57044 -0.80861,0.23 -1.75531,0.13305 -2.1038,-0.21546 z"
       id="path4025"
       inkscape:connector-curvature="0" />
    <path
       style="fill:#000000;display:inline"
       d="m 263.83405,701.19033 c -6.06209,-2.03743 -6.30416,-2.2366 -5.07363,-4.1745 0.57647,-0.90787 2.0828,-0.72193 6.76458,0.83497 7.18426,2.38909 6.67043,2.04862 5.94494,3.93923 -0.70161,1.82836 -0.32307,1.8581 -7.63589,-0.5997 z"
       id="path4023"
       inkscape:connector-curvature="0" />
    <path
       style="fill:#000000;display:inline"
       d="m 585.88589,698.29205 c -0.66284,-1.72746 11.32768,-5.81409 12.78454,-4.35724 1.34559,1.34565 0.0907,2.30263 -5.40807,4.12469 -5.61985,1.86208 -6.73766,1.89732 -7.37647,0.23255 z"
       id="path4021"
       inkscape:connector-curvature="0" />
    <path
       style="fill:#000000;display:inline"
       d="m 244.43236,694.53642 c -3.08557,-1.1816 -5.50493,-2.52736 -5.37637,-2.99058 0.12857,-0.46323 0.34132,-1.16494 0.4728,-1.55935 0.18436,-0.5531 11.43829,2.58285 12.63951,3.52206 0.46487,0.36347 -0.91113,3.27367 -1.52458,3.22444 -0.33067,-0.0265 -3.12579,-1.01499 -6.21136,-2.19657 z"
       id="path4019"
       inkscape:connector-curvature="0" />
    <path
       style="fill:#000000;display:inline"
       d="m 605.98313,691.54977 c 0.43198,-2.13139 11.15677,-6.39149 12.15032,-4.82642 1.2375,1.94913 0.99402,2.15489 -5.06912,4.28432 -6.9516,2.44145 -7.47437,2.48147 -7.0812,0.5421 z"
       id="path4017"
       inkscape:connector-curvature="0" />
    <path
       style="fill:#000000;display:inline"
       d="m 224.56317,687.25634 c -3.47294,-1.37661 -4.90886,-2.45617 -4.90886,-3.69061 0,-2.21934 0.26781,-2.19837 7.01266,0.54901 5.31204,2.16375 7.28578,4.45775 4.20759,4.8903 -0.77139,0.1084 -3.61152,-0.67852 -6.31139,-1.7487 z"
       id="path4015"
       inkscape:connector-curvature="0" />
    <path
       style="fill:#000000;display:inline"
       d="m 625.18407,684.3379 c -0.37401,-0.97477 1.11912,-2.05909 5.24967,-3.81233 6.76329,-2.87074 6.80901,-2.87683 7.52813,-1.00288 0.4016,1.04661 -0.62001,1.94481 -3.7268,3.27654 -6.43743,2.75941 -8.45119,3.10174 -9.051,1.53867 z"
       id="path4013"
       inkscape:connector-curvature="0" />
    <path
       style="fill:#000000;display:inline"
       d="m 205.629,679.32048 c -6.11852,-2.78216 -5.98001,-2.66717 -5.31137,-4.40963 0.44506,-1.1598 1.51592,-0.98932 6.69623,1.06599 4.16274,1.65159 6.07893,2.89743 5.89712,3.83408 -0.41384,2.13203 -1.70605,2.045 -7.28198,-0.49044 z"
       id="path4011"
       inkscape:connector-curvature="0" />
    <path
       style="fill:#000000;display:inline"
       d="m 189.12059,604.63956 c -0.30414,-0.79258 -0.35453,-1.63951 -0.11198,-1.88207 1.01714,-1.01714 11.8654,-4.85667 12.35076,-4.37131 0.93191,0.93191 0.56766,2.80758 -0.63923,3.29157 -11.15985,4.47535 -11.03135,4.44254 -11.59955,2.96181 z"
       id="path4005"
       inkscape:connector-curvature="0" />
    <path
       style="fill:#000000;display:inline"
       d="m 629.7667,602.75219 c -6.50691,-2.62722 -6.2911,-2.46093 -5.29203,-4.07746 1.10706,-1.79124 13.32872,2.44018 12.9332,4.47776 -0.40495,2.08607 -1.64386,2.02117 -7.64117,-0.4003 z"
       id="path4003"
       inkscape:connector-curvature="0" />
    <path
       style="fill:#000000;display:inline"
       d="m 208.43406,596.36654 c 0,-1.38324 0.52964,-1.66614 8.09347,-4.32302 4.68014,-1.64397 4.83416,-1.64267 5.27531,0.0443 0.37174,1.42158 -0.58081,2.0873 -5.2362,3.65945 -6.70655,2.26482 -8.13258,2.37341 -8.13258,0.61925 z"
       id="path4001"
       inkscape:connector-curvature="0" />
    <path
       style="fill:#000000;display:inline"
       d="m 610.0702,595.35732 c -5.58151,-2.10144 -7.12411,-3.50394 -5.17739,-4.70709 0.78046,-0.48232 11.08934,2.53699 12.86859,3.76899 0.48724,0.33732 -0.92595,3.24934 -1.52455,3.14166 -0.33062,-0.0595 -3.10567,-1.05109 -6.16665,-2.20356 z"
       id="path3999"
       inkscape:connector-curvature="0" />
    <path
       style="fill:#000000;display:inline"
       d="m 228.69248,589.78935 c -0.32333,-0.84258 0.11236,-1.79525 1.04813,-2.2918 2.76441,-1.46691 11.23104,-3.73029 11.80539,-3.15594 1.51843,1.51843 0.0454,2.85927 -4.82756,4.39425 -2.957,0.93146 -5.84802,1.874 -6.42449,2.09453 -0.57646,0.22054 -1.29713,-0.24794 -1.60147,-1.04104 z"
       id="path3997"
       inkscape:connector-curvature="0" />
    <path
       style="fill:#000000;display:inline"
       d="m 588.80241,588.15184 c -3.85444,-1.30477 -5.18423,-2.17747 -4.80882,-3.15582 0.65732,-1.713 2.41797,-1.62 8.26652,0.43662 2.71755,0.95562 4.80171,2.29557 4.9774,3.20011 0.38392,1.97606 -1.49313,1.86905 -8.4351,-0.48091 z"
       id="path3995"
       inkscape:connector-curvature="0" />
    <path
       style="fill:#000000;display:inline"
       d="m 249.29239,583.98447 c -1.70483,-1.70481 -0.15522,-3.00285 5.37046,-4.49858 5.74541,-1.55521 8.00242,-1.42919 8.00242,0.44681 0,0.46955 -2.41937,1.55371 -5.37637,2.40926 -2.957,0.85554 -5.81911,1.7219 -6.36023,1.92524 -0.54112,0.20333 -1.27745,0.0761 -1.63628,-0.28273 z"
       id="path3993"
       inkscape:connector-curvature="0" />
    <path
       style="fill:#000000;display:inline"
       d="m 568.65084,581.99708 c -3.64443,-1.06089 -4.90886,-1.87579 -4.90886,-3.16373 0,-2.12317 0.0692,-2.12277 7.01265,0.0413 3.44284,1.07307 5.72691,2.33197 5.91242,3.2588 0.36831,1.83963 -1.32717,1.81078 -8.01621,-0.1364 z"
       id="path3991"
       inkscape:connector-curvature="0" />
    <path
       style="fill:#000000;display:inline"
       d="m 269.71901,578.23051 c -1.59428,-1.59427 0.19144,-2.95047 5.71015,-4.33673 4.3398,-1.09012 6.51513,-1.26572 7.19966,-0.58118 0.61634,0.61634 0.65077,1.28019 0.0927,1.78613 -1.19575,1.08395 -12.36102,3.77322 -13.00246,3.13178 z"
       id="path3989"
       inkscape:connector-curvature="0" />
    <path
       style="fill:#000000;display:inline"
       d="m 548.08038,576.43589 c -3.68108,-1.08498 -4.90886,-1.88909 -4.90886,-3.21496 0,-1.45799 0.45096,-1.65778 2.57131,-1.13909 7.67699,1.87803 10.06512,2.88304 10.34862,4.35509 0.37784,1.96221 -1.35101,1.96199 -8.01107,-9.4e-4 z"
       id="path3987"
       inkscape:connector-curvature="0" />
    <path
       style="fill:#000000;display:inline"
       d="m 290.19803,572.342 c -0.92624,-1.4987 0.41282,-2.28476 5.96557,-3.50195 6.67595,-1.4634 7.83726,-1.38978 7.47739,0.47407 -0.20187,1.04554 -2.01093,1.96435 -5.44493,2.76545 -6.4206,1.49782 -7.21833,1.524 -7.99803,0.26243 z"
       id="path3985"
       inkscape:connector-curvature="0" />
    <path
       style="fill:#000000;display:inline"
       d="m 533.3538,572.87639 c -0.51426,-0.18396 -3.3096,-0.80242 -6.2119,-1.37436 -4.47015,-0.8809 -5.20657,-1.30892 -4.81676,-2.79959 0.25311,-0.96783 0.94465,-1.60328 1.5368,-1.4121 0.59215,0.19117 3.49604,0.82303 6.45304,1.40412 4.32204,0.84934 5.37637,1.41025 5.37637,2.86028 0,1.76063 -0.43029,2.0039 -2.33755,1.32165 z"
       id="path3983"
       inkscape:connector-curvature="0" />
    <path
       style="fill:#000000;display:inline"
       d="m 310.83825,567.77977 c -0.98182,-1.58863 -0.50085,-1.8142 6.85852,-3.21646 6.25442,-1.19173 6.67987,-1.16698 6.67987,0.38859 0,2.01035 -1.00145,2.43656 -7.68805,3.272 -3.5625,0.4451 -5.38633,0.30665 -5.85034,-0.44413 z"
       id="path3981"
       inkscape:connector-curvature="0" />
    <path
       style="fill:#000000;display:inline"
       d="m 505.96255,567.48705 c -3.74719,-0.71956 -4.88062,-1.31478 -4.66229,-2.44847 0.32828,-1.7046 0.14511,-1.68919 7.97675,-0.67124 4.8537,0.63088 5.84388,1.06088 5.84388,2.53782 0,2.00908 -1.29687,2.09149 -9.15834,0.58189 z"
       id="path3979"
       inkscape:connector-curvature="0" />
    <path
       style="fill:#000000;display:inline"
       d="m 331.85681,564.11366 c 0,-2.00694 2.33699,-2.76535 9.78166,-3.17442 2.77748,-0.15262 3.78318,0.17737 4.02052,1.31919 0.25255,1.21501 -0.77936,1.65136 -5.10655,2.15935 -2.98268,0.35014 -6.15938,0.85036 -7.05934,1.1116 -1.17549,0.3412 -1.63629,-0.0575 -1.63629,-1.41572 z"
       id="path3977"
       inkscape:connector-curvature="0" />
    <path
       style="fill:#000000;display:inline"
       d="m 484.74179,564.12993 c -2.62807,-0.41499 -3.82985,-1.10815 -4.06538,-2.34463 -0.30706,-1.61217 0.11202,-1.70304 5.13355,-1.11323 7.1846,0.84387 8.91776,1.3982 8.48615,2.71427 -0.41777,1.27421 -4.28707,1.57536 -9.55432,0.74359 z"
       id="path3975"
       inkscape:connector-curvature="0" />
    <path
       style="fill:#000000;display:inline"
       d="m 352.85633,561.141 c -0.96099,-1.55494 -0.18035,-1.84843 6.9404,-2.60927 5.89754,-0.63015 6.65585,-0.5318 6.65585,0.86326 0,1.01537 -1.03757,1.78198 -2.92194,2.15884 -4.51778,0.90356 -9.99157,0.69185 -10.67431,-0.41283 z"
       id="path3973"
       inkscape:connector-curvature="0" />
    <path
       style="fill:#000000;display:inline"
       d="m 462.05846,561.46185 c -2.27303,-0.28208 -3.03882,-0.84153 -3.03882,-2.22012 0,-1.67059 0.45919,-1.79096 4.90886,-1.28678 7.67279,0.86939 9.11646,1.31258 9.11646,2.79857 0,1.40063 -3.55897,1.63008 -10.9865,0.70833 z"
       id="path3971"
       inkscape:connector-curvature="0" />
    <path
       style="fill:#000000;display:inline"
       d="m 373.93275,558.97472 c 0,-1.64437 2.8965,-2.41766 9.11645,-2.43384 4.28977,-0.0111 4.90886,0.22308 4.90886,1.85728 0,1.70381 -0.62335,1.87004 -7.01265,1.87004 -5.34736,0 -7.01266,-0.30716 -7.01266,-1.29348 z"
       id="path3969"
       inkscape:connector-curvature="0" />
    <path
       style="fill:#000000;display:inline"
       d="m 439.09871,559.6137 c -0.92842,-0.24066 -1.5259,-0.92818 -1.32774,-1.52782 0.21783,-0.65915 3.01121,-1.19888 7.0644,-1.36497 6.21827,-0.25481 6.70411,-0.13623 6.70411,1.63629 0,1.71566 -0.54951,1.89991 -5.37637,1.80254 -2.95701,-0.0597 -6.13598,-0.30537 -7.0644,-0.54604 z"
       id="path3967"
       inkscape:connector-curvature="0" />
    <path
       style="fill:#000000;display:inline"
       d="m 395.43823,557.46314 c 0,-1.70382 0.62335,-1.87004 7.01265,-1.87004 6.38931,0 7.01266,0.16622 7.01266,1.87004 0,1.70381 -0.62335,1.87004 -7.01266,1.87004 -6.3893,0 -7.01265,-0.16623 -7.01265,-1.87004 z"
       id="path3965"
       inkscape:connector-curvature="0" />
    <path
       style="fill:#000000;display:inline"
       d="m 416.94371,557.46314 c 0,-1.70615 0.62335,-1.87004 7.11269,-1.87004 6.1017,0 7.03202,0.21022 6.54515,1.479 -0.31216,0.81345 -0.56755,1.65497 -0.56755,1.87004 0,0.21507 -2.94532,0.39104 -6.54515,0.39104 -5.92179,0 -6.54514,-0.1781 -6.54514,-1.87004 z"
       id="path3963"
       inkscape:connector-curvature="0" />
    <path
       style="fill:#000000;display:inline"
       d="m -267.5,386.83168 c -25.31369,-4.09689 -45.29199,-12.22109 -55.20364,-22.44861 C -329.18522,357.69494 -329,359.39879 -329,306.46105 l 0,-48.09887 -22,0 c -21.33333,0 -22,-0.0606 -22,-2 0,-1.94444 0.66667,-2 24,-2 l 24,0 0,17.5 c 0,9.625 0.25458,17.5 0.56574,17.5 1.10738,0 4.96695,-2.27963 7.02386,-4.14859 2.06476,-1.87609 2.1592,-1.85676 7.94118,1.62496 4.30818,2.59425 6.99855,3.52363 10.20023,3.52363 4.207,0 10.9862,-2.66878 14.40991,-5.67279 1.45049,-1.27267 2.15604,-1.07667 6.07945,1.68879 7.512,5.29495 14.65814,5.06445 22.52963,-0.72671 l 3.25,-2.39107 0,-84.94911 0,-84.94911 125.75,-0.0108 125.75,-0.0108 6.35861,-4.44111 c 7.35918,-5.13995 18.059,-9.824287 27.81248,-12.176187 9.86548,-2.3789 27.55194,-2.11619 37.73924,0.56058 30.00503,7.883977 52.73487,31.682817 59.14514,61.926767 2.87045,13.5429 1.41131,32.3243 -3.5191,45.29641 -1.11945,2.94531 -2.03559,5.69261 -2.03587,6.10511 -2.7e-4,0.4125 49.22204,0.75 109.38292,0.75 l 109.38343,0 0.47758,-2.49832 c 0.26267,-1.37408 0.55896,-34.33658 0.65841,-73.25 0.11539,-45.146579 0.55717,-72.199281 1.22072,-74.751677 4.27407,-16.440481 23.06611,-31.053818 48.37644,-37.619188 7.7653,-2.014279 11.4008,-2.334553 26.5,-2.334553 21.0469,0 29.7162,1.811353 45.799,9.569178 12.4734,6.016788 22.1232,14.802406 26.7831,24.384563 l 2.9179,6 0.5,75.499997 0.5,75.5 38,0.57219 c 37.1554,0.55947 38.3667,0.64153 54.5,3.69193 21.7617,4.11459 33.9078,5.35582 42,4.29205 8.1672,-1.07364 10.89,-2.14266 15.2843,-6.00093 4.4966,-3.94809 5.9404,-7.14466 14.7036,-32.55524 3.9832,-11.55 9.5844,-25.77565 12.4472,-31.61255 l 5.2049,-10.61256 -3.32,-3.62276 c -1.826,-1.99252 -3.32,-4.60796 -3.32,-5.8121 0,-2.38556 14.8663,-65.039684 15.6084,-65.781807 0.2502,-0.250153 5.5031,0.767675 11.6732,2.261838 6.1701,1.494163 11.8934,2.684052 12.7184,2.644198 1.8906,-0.09133 7.8697,-9.062845 8.6542,-12.985486 0.4348,-2.173606 0.1636,-3.111457 -1.0323,-3.570359 -2.4499,-0.940137 -1.9678,-3.694416 1.6281,-9.301508 1.7875,-2.787215 4.3081,-6.805524 5.6014,-8.929576 1.2932,-2.124051 4.2182,-5.094684 6.5,-6.601406 3.6552,-2.413715 4.8656,-2.686109 10.178,-2.290568 10.8777,0.809912 18.0544,6.671013 21.5726,17.617888 0.6358,1.978217 1.8403,4.784099 2.6767,6.235292 1.7846,3.096095 1.051,5.861467 -1.5548,5.861467 -1.0451,0 -3.2193,1.958444 -5.0366,4.536591 -3.0795,4.368913 -3.1544,4.708551 -2.0262,9.188988 l 1.1715,4.652396 -4.1663,3.588281 C 752.5295,80.46064 752,81.441645 752,85.047135 c 0,2.537533 1.0431,6.140922 2.7047,9.343638 l 2.7047,5.2132 8.2677,-0.67084 c 8.5589,-0.69446 10.7138,-0.18012 14.3095,3.415567 1.9218,1.92181 12.5938,3.71522 18.7634,3.15314 2.3133,-0.21076 3.25,0.12328 3.25,1.15904 0,1.77162 11.7166,5.05143 12.2568,3.431 0.5265,-1.57956 10.7432,1.14979 10.7432,2.87001 l -2.9158,15.60022 c -1.86196,1.20855 -3.01487,0.85646 -5.6115,0.22893 -1.964,-0.36843 -4.2354,-1.33447 -5.0477,-2.14674 -2.0244,-2.02445 -11.6662,-4.50988 -12.4673,-3.21377 -0.659,1.06629 -4.0531,0.17791 -5.0666,-1.32613 -0.3349,-0.49699 -4.0256,-1.38307 -8.2016,-1.96906 l -7.5926,-1.06543 -3.4553,3.0338 c -3.006,2.63927 -4.5003,3.12629 -11.4907,3.74509 -7.7931,0.68984 -8.0543,0.79705 -8.6599,3.55441 -0.3435,1.56371 -1.9444,4.66528 -3.5577,6.89237 -1.6133,2.22709 -2.9333,4.8257 -2.9333,5.7747 0,0.949 2.018,6.71177 4.4845,12.80616 2.4665,6.09439 4.7727,12.52183 5.125,14.28321 0.5553,2.77661 0.3658,3.2025 -1.4255,3.2025 -1.1363,0 -2.2722,0.3375 -2.5242,0.75 -0.2521,0.4125 1.0018,6.60226 2.7863,13.75502 2.714,10.87834 3.1261,13.98536 2.52,19 -1.1585,9.58514 -14.1937,42.00597 -23.1165,57.49498 -3.2635,5.66507 -3.283,5.93587 -0.631,8.7688 2.9473,3.1484 4.0984,6.24147 3.1971,8.59032 -0.5632,1.46772 -3.6183,1.64088 -28.9507,1.64088 l -28.3211,0 -0.7142,-5.71625 c -0.8301,-6.64362 1.0203,-33.23303 3.0514,-43.84867 1.5384,-8.04046 3.2337,-11.96201 6.4165,-14.84243 1.4655,-1.32624 2.1024,-3.10803 2.1024,-5.88162 0,-2.18844 0.4162,-5.6062 0.925,-7.59501 1.7433,-6.81554 3.3498,-27.5244 2.1658,-27.91908 -0.7111,-0.23705 -1.1203,-5.12064 -1.1756,-14.03027 l -0.085,-13.66667 -4.8382,10 c -2.6609,5.5 -8.2128,19.73682 -12.3374,31.63738 -8.8024,25.39693 -10.2884,28.5375 -16.7225,35.34062 -12.99,13.73493 -29.2274,15.64911 -70.6923,8.33366 l -23.7401,-4.18834 -34.75,-0.39081 -34.75,-0.39081 0,13.07915 0,13.07915 -76,0 c -60.05591,0 -76.03046,-0.26224 -76.14518,-1.25 -0.0798,-0.6875 -0.19235,-3.5 -0.25,-6.25 l -0.10482,-5 -123,-0.27215 -123,-0.27216 -8.5,4.43634 c -14.44727,7.54034 -21.07373,9.10797 -38.5,9.10797 -12.94408,0 -16.02313,-0.32127 -22.46476,-2.34401 -19.87751,-6.24182 -34.78868,-17.42985 -45.52209,-34.15596 -12.85683,-20.03509 -16.39814,-44.94189 -9.48486,-66.7091 1.0846,-3.415 1.97201,-6.4525 1.97201,-6.75 0,-0.29749 -44.1,-0.5409 -98,-0.5409 l -98,0 0,70.54889 0,70.54889 4.25,1.92915 c 2.3375,1.06103 5.73043,1.93903 7.53984,1.95111 3.31602,0.0221 10.25477,-2.93242 13.42231,-5.71529 1.54239,-1.35507 2.01086,-1.25288 4.7246,1.03058 6.88463,5.79303 16.22615,6.09145 23.78997,0.75997 3.96657,-2.79589 4.68319,-2.99808 6.13236,-1.73016 1.6622,1.4543 7.58195,4.67686 8.59126,4.67686 0.30231,0 0.54966,-7.875 0.54966,-17.5 l 0,-17.5 24.5,0 c 23.83333,0 24.5,0.0544 24.5,2 0,1.94074 -0.66667,2 -22.5,2 l -22.5,0 0,48.80422 0,48.80422 -2.85773,4.50618 c -6.53658,10.3071 -25.11853,19.55044 -50.36046,25.05111 -12.50074,2.72414 -52.6287,3.51346 -66.28181,1.30377 z"
       id="path3855"
       inkscape:connector-curvature="0"
       sodipodi:nodetypes="ssscssscsssssssscccccssssscscssssssscccsssssccsscssccsccsccscscssscssssccccccsscsscssscscsssssscsssscccccssscccccscscccssssssscccscsssssscssscccsss" />
    <path
       style="fill:#00ffff;display:inline"
       d="m -209.31735,382.81209 c 25.62494,-3.80494 48.97146,-14.27572 55.42407,-24.85737 1.74162,-2.8561 1.88465,-5.46266 1.87065,-34.09254 l -0.0152,-31 -5.49841,-2.66993 -5.49841,-2.66993 -4.45364,2.48918 c -2.4495,1.36905 -6.82921,2.72251 -9.73269,3.00767 -4.50053,0.44203 -6.15062,0.074 -11.18898,-2.49525 l -5.90992,-3.01375 -4.81526,2.51783 c -6.84988,3.5817 -11.58323,3.99471 -17.21767,1.50233 L -221,289.47464 l 0,10.44377 c 0,9.7771 -0.12767,10.44377 -2,10.44377 -1.98422,0 -2,-0.66667 -2,-84.5 l 0,-84.5 103.10699,0 c 97.80935,0 103.06937,0.0899 102.37491,1.75 -9.89296,23.64858 -9.55502,45.41346 1.03642,66.75 11.86369,23.89949 34.63679,39.74874 60.87366,42.36586 16.00894,1.59688 33.29476,-1.94932 45.92969,-9.42251 l 5.82167,-3.44335 126.42833,0 126.42833,0 0,6 0,6 72.4701,0 72.4701,0 0.2799,-12.75 0.2799,-12.75 36,0.0534 36,0.0534 24,4.24152 c 41.621,7.35568 58.3847,5.45043 69.8448,-7.9381 4.7917,-5.59801 7.2899,-11.20964 15.0239,-33.74768 10.9012,-31.76766 16.3794,-42.61794 27.4344,-54.33675 6.7997,-7.20813 11.7274,-11.0645 20.8721,-16.33436 l 5.2206,-3.00849 -1.9471,-4.34883 c -1.5143,-3.38233 -2.3361,-4.20465 -3.6979,-3.7001 -5.5263,2.04763 -18.5002,11.03194 -24.8144,17.18382 -13.2783,12.93671 -20.7319,26.92807 -32.434,60.88208 -9.8183,28.48831 -11.3014,31.13158 -20.2481,36.08871 -5.1848,2.87281 -5.4592,2.91055 -20.7543,2.85544 -12.9763,-0.0468 -18.2679,-0.5699 -32.5,-3.21303 -25.2305,-4.68572 -31.9811,-5.21393 -66.75,-5.22292 l -31.75,-0.008 0,-15.10699 c 0,-14.00805 -0.1273,-15.05216 -1.75,-14.35334 -0.9625,0.41451 -4.45,0.9488 -7.75,1.18732 -5.1252,0.37043 -6.8067,0.021 -11.5327,-2.39667 l -5.5327,-2.83032 -4.9673,2.72664 c -6.6518,3.65128 -12.4404,3.65817 -19.6091,0.0234 l -5.4236,-2.75 -4.9673,2.72664 c -6.5762,3.60979 -11.6766,3.59588 -18.60311,-0.0507 L 406.5,181.71416 402.65957,184.231 c -2.62011,1.71709 -5.63881,2.64355 -9.5,2.91563 -4.82257,0.33982 -6.50704,-0.049 -11.38995,-2.62899 -3.1517,-1.66529 -5.95847,-2.65873 -6.23725,-2.20765 -0.27878,0.45108 -2.53271,1.77239 -5.00872,2.93626 -5.80418,2.7282 -13.31114,2.77526 -18.52365,0.11604 -2.15618,-1.1 -4.16325,-2 -4.46016,-2 -0.29691,0 -0.53984,6.68589 -0.53984,14.85754 l 0,14.85755 -6.14669,0.64245 C 334.45927,214.38803 118,214.64726 118,213.98661 c 0,-0.20656 1.17072,-3.01906 2.6016,-6.25 9.21225,-20.80132 8.85719,-45.20943 -0.95825,-65.87443 -9.06394,-19.08281 -27.80749,-34.57304 -49.19994,-40.66031 -11.15102,-3.173047 -28.67349,-3.191427 -39.7349,-0.0417 -8.82968,2.51427 -18.85165,7.33924 -26.20531,12.61627 l -4.99681,3.58574 -124.25319,0 -124.2532,0 0,96.5 c 0,95.83333 -0.0138,96.5 -2,96.5 -1.88448,0 -2,-0.66667 -2,-11.54215 l 0,-11.54216 -4.73601,2.77549 c -6.51783,3.8197 -13.85194,3.83895 -20.61229,0.0541 l -4.8483,-2.71437 -4.63962,2.719 c -6.48829,3.80239 -14.6273,3.82067 -21.80187,0.049 l -5.13809,-2.70111 -5.1035,2.70111 -5.1035,2.70111 -0.008,31.09996 -0.008,31.09996 3.0415,4.19867 c 7.45198,10.28716 28.8808,19.53499 54.4844,23.5133 12.6676,1.9683 45.01455,1.98945 58.15675,0.038 z"
       id="path3853"
       inkscape:connector-curvature="0" />
    <path
       style="fill:#000000;display:inline"
       d="m -96,134.30169 0,-2.93951 -33,0 c -32.33333,0 -33,-0.0404 -33,-2 0,-1.9596 0.66667,-2 33,-2 l 33,0 0,-3 c 0,-3.49334 -0.0595,-3.4756 4.78212,-1.42646 2.04483,0.86545 7.54288,2.59898 12.21788,3.8523 l 8.5,2.27876 -6,1.6735 c -3.3,0.92042 -9.0375,2.75967 -12.75,4.08721 L -96,137.2412 z"
       id="path3851"
       inkscape:connector-curvature="0" />
    <path
       style="fill:#ffffff;display:inline"
       d="m 722,279.57779 c 0,-0.43142 -1.2375,-1.49887 -2.75,-2.37211 -2.3072,-1.33204 -5.2901,-1.50612 -18.5242,-1.08101 -15.0679,0.48402 -17.6136,0.99196 -16.2258,3.23751 0.7346,1.18862 37.5,1.40001 37.5,0.21561 z"
       id="path3849"
       inkscape:connector-curvature="0" />
    <path
       style="fill:#ffffff;display:inline"
       d="m 735.82,278.04646 c 0.6444,-3.32228 -4.5536,-6.2458 -19.5015,-10.96843 -13.4429,-4.24709 -14.9316,-4.53036 -16.0365,-3.05145 -0.6698,0.89663 -0.9766,2.02077 -0.6816,2.49807 0.916,1.48209 7.4907,3.83753 10.7116,3.83753 1.8254,0 5.8375,1.67347 9.9068,4.13222 9.3975,5.67806 14.944,6.94086 15.6012,3.55206 z"
       id="path3847"
       inkscape:connector-curvature="0" />
    <path
       style="fill:#ffffff;display:inline"
       d="m 698.8896,273.31562 6.6104,-0.0466 -4.8485,-2.52268 c -3.7135,-1.9321 -4.7343,-2.95956 -4.3605,-4.38886 0.6171,-2.35987 -1.0327,-2.99534 -7.7763,-2.99534 l -5.3217,0 -0.3465,5.08382 c -0.1906,2.79611 -0.1215,5.31407 0.1535,5.59548 0.275,0.2814 2.4753,0.24368 4.8896,-0.0838 2.4142,-0.32751 7.3642,-0.61642 11,-0.64202 z"
       id="path3845"
       inkscape:connector-curvature="0" />
    <path
       style="fill:#ffffff;display:inline"
       d="m 731,266.48462 c 0,-1.03265 0.675,-2.43775 1.5,-3.12244 3.9469,-3.27568 0.084,-5.81666 -15.8619,-10.43396 -10.8599,-3.14459 -12.4572,-3.18191 -13.5293,-0.31604 -2.6426,7.06394 -3.4994,6.2412 11.5885,11.12847 15.9883,5.17893 16.3027,5.23185 16.3027,2.74397 z"
       id="path3843"
       inkscape:connector-curvature="0" />
    <path
       style="fill:#ffffff;display:inline"
       d="m 698.2339,260.2331 c -0.3508,-2.14816 9.8872,-27.59611 14.4314,-35.87092 1.9632,-3.575 4.8667,-7.97816 6.4521,-9.7848 1.5854,-1.80663 2.8826,-3.69044 2.8826,-4.18624 0,-0.4958 -2.4891,-3.74264 -5.5313,-7.2152 -6.817,-7.78136 -10.4146,-14.88979 -11.1521,-22.03472 -0.5304,-5.13913 -0.7047,-5.42751 -3.0142,-4.98601 -1.3483,0.25773 -2.8116,1.42224 -3.2518,2.58779 -0.7068,1.87134 -1.8901,11.72336 -3.7378,31.11918 -0.3143,3.3 -1.1199,6.675 -1.7901,7.5 -2.7007,3.32453 -2.6609,4.34444 0.073,1.86002 4.1495,-3.77134 16.4047,-9.76906 16.4047,-8.02846 0,0.43013 -3.1559,2.30879 -7.0132,4.17481 -3.8572,1.86601 -7.9551,4.39544 -9.1064,5.62095 -1.1513,1.22552 -2.6919,1.9985 -3.4236,1.71775 -2.4377,-0.93544 -4.8379,10.23374 -6.951,32.34534 l -0.5916,6.1904 4.2929,0.4073 c 8.1094,0.76939 11.3166,0.3572 11.0268,-1.41719 z"
       id="path3841"
       inkscape:connector-curvature="0" />
    <path
       style="fill:#ffffff;display:inline"
       d="m 697,211.4673 c 0,-1.88524 12.5075,-11.93096 13.553,-10.88545 0.2698,0.26982 -2.6692,3.02571 -6.5312,6.12421 -3.862,3.09849 -7.0218,5.24105 -7.0218,4.76124 z"
       id="path3839"
       inkscape:connector-curvature="0" />
    <path
       style="fill:#ffffff;display:inline"
       d="m 739.1232,251.09302 c 5.0072,-8.611 16.7425,-39.61164 17.4094,-45.98953 0.4176,-3.99453 -0.2598,-8.45263 -2.848,-18.74131 l -3.3959,-13.5 -6.8943,-0.32719 c -6.6901,-0.31749 -30.1103,1.37955 -33.6444,2.4379 -1.3449,0.40276 -1.7477,1.60798 -1.7402,5.20668 0.013,6.3193 3.4468,13.27685 10.3491,20.97041 6.9975,7.79971 7.2232,10.07988 1.6636,16.80782 -3.3832,4.09406 -15.7619,29.04352 -14.8357,29.90144 0.1723,0.15955 4.7381,1.46226 10.1463,2.89491 5.4082,1.43265 11.7082,3.46762 14,4.52216 2.2918,1.05454 4.6169,1.94665 5.1669,1.98245 0.55,0.0358 2.6304,-2.73877 4.6232,-6.16574 z"
       id="path3837"
       inkscape:connector-curvature="0" />
    <path
       style="fill:#ffffff;display:inline"
       d="m 732.8247,226.19513 c -2.5423,-2.11794 -5.1223,-3.22488 -8.3693,-3.59086 -3.5707,-0.40247 -4.2973,-0.75106 -3.0365,-1.45665 0.9116,-0.51017 3.1028,-0.62072 4.8693,-0.24568 4.5531,0.96665 14.5862,8.66196 10.9618,8.40761 -0.4125,-0.029 -2.4039,-1.43044 -4.4253,-3.11442 z"
       id="path3835"
       inkscape:connector-curvature="0" />
    <path
       style="fill:#ffffff;display:inline"
       d="m 731.5,215.55417 c -6.7444,-2.15792 -2.6002,-2.89315 4.4711,-0.79322 3.6202,1.07509 5.852,1.23878 7.637,0.56011 3.4331,-1.30525 3.8466,-1.2117 2.3919,0.54112 -1.6,1.92784 -7.9324,1.79332 -14.5,-0.30801 z"
       id="path3833"
       inkscape:connector-curvature="0" />
    <path
       style="fill:#ffffff;display:inline"
       d="m 729.25,211.25359 c -1.7875,-0.52173 -3.25,-1.43387 -3.25,-2.02699 0,-0.61829 0.7467,-0.78954 1.75,-0.40138 4.2353,1.63851 7.1436,1.56923 12.0274,-0.28648 5.7389,-2.18057 7.1442,-1.46331 1.9686,1.00474 -4.6877,2.23542 -8.7783,2.79522 -12.496,1.71011 z"
       id="path3831"
       inkscape:connector-curvature="0" />
    <path
       style="fill:#ffffff;display:inline"
       d="m 370.0669,182.29091 c 1.96179,-0.9804 4.12651,-2.45685 4.81048,-3.28099 1.08583,-1.30834 1.77508,-1.14106 5.43311,1.3186 5.2711,3.54429 10.88767,5.12401 14.51712,4.0831 3.89803,-1.11794 8.58838,-3.64082 10.05571,-5.40885 1.07627,-1.29683 1.8224,-1.09664 5.72212,1.53525 2.46646,1.66459 6.26786,3.26574 8.44766,3.5581 4.5426,0.60929 11.7464,-1.74987 14.4434,-4.73005 1.7135,-1.89339 1.7916,-1.8859 4.8769,0.46733 4.1929,3.19811 8.3544,4.7228 12.7913,4.68649 3.8738,-0.0317 10.5988,-2.9629 12.753,-5.5586 1.1413,-1.37514 1.6567,-1.26278 4.6381,1.01121 5.1555,3.93237 11.7562,5.59173 16.9952,4.27252 8.1006,-2.03975 7.5791,2.47159 7.2256,-62.5121 -0.3432,-63.07781 -0.071,-60.095736 -6.3931,-70.071791 C 480.0593,41.681663 464.2363,31.840754 447,27.167012 c -7.4388,-2.017075 -10.8097,-2.304829 -27,-2.304829 -16.20801,0 -19.5448,0.285488 -26.93317,2.304348 -21.51869,5.879941 -36.52095,16.656322 -43.42881,31.195652 C 347.52971,62.799642 347.5,63.674421 347.5,121.30541 l 0,58.44322 3.34024,1.95153 c 6.55773,3.83134 12.38404,4.01036 19.22666,0.59075 z"
       id="path3829"
       inkscape:connector-curvature="0" />
    <path
       style="fill:#ffffff;display:inline"
       d="m 702.5,173.39296 c 8.578,-1.97363 22.6617,-3.17905 37.3039,-3.19284 11.1758,-0.0105 15.1984,-0.32779 14.9126,-1.17618 -0.9093,-2.69953 -53.744,-0.31413 -57.4555,2.59403 -1.2059,0.94491 -0.8384,2.76881 0.548,2.71976 0.3801,-0.0134 2.491,-0.43859 4.691,-0.94477 z"
       id="path3827"
       inkscape:connector-curvature="0" />
    <path
       style="fill:#ffffff;display:inline"
       d="m 713,167.29361 c 5.775,-0.61794 17.3029,-1.4178 25.6177,-1.77747 l 15.1176,-0.65396 -0.8901,-2.39791 -0.8902,-2.39791 -25.2275,0.60117 c -13.8751,0.33064 -26.24,0.89969 -27.4775,1.26454 -1.7724,0.52258 -2.25,1.39834 -2.25,4.1262 0,3.24477 0.1732,3.42806 2.75,2.91084 1.5125,-0.30359 7.475,-1.05757 13.25,-1.6755 z"
       id="path3825"
       inkscape:connector-curvature="0" />
    <path
       style="fill:#ffffff;display:inline"
       d="m 730.117,158.48353 20.6171,-0.62135 -2.6104,-6.75275 c -2.2863,-5.91439 -3.0457,-6.90308 -6.117,-7.96361 -4.643,-1.60324 -19.4765,-1.54675 -24.5067,0.0933 -2.2,0.7173 -7.7125,2.67317 -12.25,4.34636 l -8.25,3.04217 0,4.96544 0,4.96543 6.25,-0.72683 c 3.4375,-0.39976 15.5277,-1.00644 26.867,-1.34819 z"
       id="path3823"
       inkscape:connector-curvature="0" />
    <path
       style="fill:#ffffff;display:inline"
       d="m 708.888,144.39381 c 11.4232,-4.19178 19.7184,-5.23926 28.9137,-3.65112 4.1529,0.71724 7.5383,0.87842 7.8502,0.37376 0.86,-1.39162 0.036,-1.78148 -8.3152,-3.93447 -12.2108,-3.14801 -21.9723,-2.31047 -32.0226,2.74757 -6.0714,3.05556 -7.8894,4.46557 -8.1519,6.32223 -0.3862,2.73142 -1.081,2.84151 11.7258,-1.85797 z"
       id="path3821"
       inkscape:connector-curvature="0" />
    <path
       style="fill:#ffffff;display:inline"
       d="m 707.3891,136.78431 c 8.1276,-3.72093 17.6778,-4.22703 28.9399,-1.53363 4.8559,1.16132 9.2127,2.1115 9.6819,2.1115 1.2732,0 4.7601,-5.23939 5.531,-8.31099 0.6631,-2.64181 0.5896,-2.68911 -4.1835,-2.69459 -7.0329,-0.008 -11.7378,-1.60243 -15.2105,-5.15438 l -3.0513,-3.12095 -7.5247,4.30529 c -6.4605,3.69638 -22.2723,16.78978 -20.4427,16.92807 0.346,0.0262 3.163,-1.11249 6.2599,-2.53032 z"
       id="path3819"
       inkscape:connector-curvature="0" />
    <path
       style="fill:#ffffff;display:inline"
       d="m 685.0782,130.76083 c 2.3768,-3.08075 7.4209,-8.43017 11.2091,-11.88762 l 6.8877,-6.28627 4.3858,-18.362377 c 2.4122,-10.099308 4.3979,-19.110626 4.4125,-20.025148 0.021,-1.296216 -2.4202,-2.247851 -11.0731,-4.316846 -6.1049,-1.459743 -11.2562,-2.497704 -11.4473,-2.30658 C 688.7153,68.313501 675,126.78268 675,129.18922 c 0,2.33959 3.4047,7.17296 5.0527,7.17296 0.3872,0 2.6487,-2.52061 5.0255,-5.60135 z"
       id="path3817"
       inkscape:connector-curvature="0" />
    <path
       style="fill:#ffffff;display:inline"
       d="m 757.8417,119.49616 c 2.2117,-7.38196 0.8249,-16.1717 -2.863,-18.14536 -1.4854,-0.79499 -2.6346,-0.0529 -6.3948,4.12926 -2.5211,2.80414 -4.5839,5.53726 -4.5839,6.07361 0,1.93361 2.5656,0.0652 5.8634,-4.27 3.3221,-4.36706 5.1427,-5.87706 5.1301,-4.25482 -0.014,1.81813 -8.2647,10.33333 -10.0123,10.33333 -4.5512,0 -3.4269,-2.99435 4.1909,-11.16197 l 4.3482,-4.661977 -3.0861,-5.573275 c -1.6973,-3.065301 -4.5558,-7.188466 -6.3522,-9.162589 -1.7964,-1.974123 -2.9548,-3.89326 -2.5742,-4.26475 0.3806,-0.37149 2.222,1.087038 4.0921,3.241174 l 3.4001,3.91661 0,-3.10151 c 0,-8.93612 -8.1588,-17.23171 -16.9476,-17.23171 -1.6566,0 -4.8397,0.731331 -7.0737,1.62518 -5.2546,2.102498 -6.5169,0.931862 -1.3822,-1.281949 9.5508,-4.117858 19.3123,-0.837341 24.5409,8.247367 l 2.6374,4.582467 3.3096,-2.957185 c 3.2194,-2.87653 3.277,-3.066116 2.1131,-6.951133 -2.5934,-8.655825 -8.6279,-12.540145 -22.0646,-14.202715 -4.6019,-0.569409 -8.7146,-0.820558 -9.1392,-0.558109 -0.4247,0.262449 -1.0779,1.718932 -1.4516,3.236629 -0.3737,1.517696 -2.2098,5.009448 -4.0803,7.759448 -2.7967,4.111815 -4.2056,8.349418 -7.9313,23.855413 C 709.0387,99.088073 707,108.17778 707,108.91695 c 0,0.86989 2.5573,-0.1097 7.25,-2.77712 3.9875,-2.26659 7.4325,-4.26377 7.6555,-4.4382 0.223,-0.17443 -0.3395,-2.623827 -1.25,-5.443127 -1.9311,-5.979404 -2.0905,-8.208001 -0.5504,-7.694625 0.6078,0.202599 2.1159,3.55653 3.3513,7.453185 1.2355,3.89665 4.1425,11.002447 6.4602,15.790657 5.0444,10.42174 6.7241,11.45751 18.6751,11.51532 l 8.0917,0.0391 1.1583,-3.86602 z"
       id="path3813"
       inkscape:connector-curvature="0" />
    <path
       style="fill:#ffffff;display:inline"
       d="m 763.0248,120.79708 c 2.323,-6.11008 0.4974,-18.4349 -2.7306,-18.4349 -1.075,0 -1.2069,0.83911 -0.5895,3.75 1.052,4.9605 0.7172,12.5932 -0.6659,15.17741 -0.9553,1.785 -0.8233,2.07259 0.9508,2.07259 1.291,0 2.4239,-0.95741 3.0352,-2.5651 z"
       id="path3811"
       inkscape:connector-curvature="0" />
    <path
       style="fill:#ffffff;display:inline"
       d="m 768.3697,120.11218 c 1.1883,-4.43423 0.5991,-10.28896 -1.3587,-13.5 -2.4984,-4.09758 -3.2224,-4.15479 -1.8243,-0.14416 0.6225,1.78556 0.8289,5.82397 0.4856,9.5 -0.4657,4.98708 -0.3009,6.39416 0.7487,6.39416 0.7402,0 1.6171,-1.0125 1.9487,-2.25 z"
       id="path3807"
       inkscape:connector-curvature="0" />
    <path
       style="fill:#ffffff;display:inline"
       d="m 775.3758,117.71782 c 3.2154,-3.85276 3.3157,-5.31928 0.3742,-5.47395 -1.7406,-0.0915 -1.5709,-0.26354 0.75,-0.75983 2.3584,-0.50431 3,-1.17404 3,-3.13168 0,-2.02754 -0.5574,-2.55092 -3,-2.81713 -4.1559,-0.45292 -5.685,-2.16898 -1.95,-2.18836 2.2723,-0.0118 2.6054,-0.23802 1.45,-0.98469 -1.4075,-0.90963 -9,-1.43867 -9,-0.62712 0,0.20509 0.9534,2.52814 2.1186,5.16234 1.6857,3.81077 1.989,5.89209 1.4844,10.18554 -0.7178,6.1071 0.1136,6.21769 4.7728,0.63488 z"
       id="path3805"
       inkscape:connector-curvature="0" />
    <path
       style="fill:#ffffff;display:inline"
       d="m 795.3875,114.17468 c 0.3506,-1.75312 0.2944,-3.51475 -0.125,-3.91472 -0.4194,-0.39997 -3.2905,-1.03502 -6.3803,-1.4112 l -5.6177,-0.68398 -1.1368,3.26086 c -0.6252,1.79347 -0.9718,3.42574 -0.7703,3.62727 0.4832,0.48318 8.5609,2.06015 11.2676,2.1997 1.6243,0.0838 2.2752,-0.64152 2.7625,-3.07793 z"
       id="path3801"
       inkscape:connector-curvature="0" />
    <path
       style="fill:#ffffff;display:inline"
       d="m 761.3689,54.15009 c -0.2678,-0.433349 -1.4729,-0.776835 -2.6779,-0.763303 -2.8222,0.03169 -6.1622,6.098474 -4.3591,7.917834 0.8945,0.902511 1.9124,0.294933 4.346,-2.594036 1.7479,-2.074924 2.9588,-4.127147 2.691,-4.560495 z"
       id="path3799"
       inkscape:connector-curvature="0" />
    <path
       style="fill:#ffffff;display:inline"
       d="m 754,54.739738 c 0,-0.986399 -1.4197,-1.377555 -5,-1.377555 -2.75,0 -5,0.21425 -5,0.47611 0,0.261861 1.6875,1.344736 3.75,2.406389 3.8647,1.989304 6.25,1.414938 6.25,-1.504944 z"
       id="path3797"
       inkscape:connector-curvature="0" />
    <path
       style="fill:#ffffff;display:inline"
       d="M 763.3253,45.91637 C 758.3142,33.129674 752.7249,28.42515 742.5,28.387883 c -6.2079,-0.02263 -10.1446,2.267143 -13.5,7.852264 -1.375,2.288701 -3.921,6.378767 -5.6579,9.089035 l -3.1578,4.92776 2.6578,0.98874 c 1.4865,0.552981 11.5103,0.916076 22.7439,0.823864 l 20.0861,-0.164877 z"
       id="path3795"
       inkscape:connector-curvature="0" />
    <text
       xml:space="preserve"
       style="font-size:40px;font-style:normal;font-weight:normal;line-height:125%;letter-spacing:0px;word-spacing:0px;fill:#000000;fill-opacity:1;stroke:none;font-family:Sans"
       x="-1.0101525"
       y="179.59038"
       id="text4163"
       sodipodi:linespacing="125%"><tspan
         sodipodi:role="line"
         id="tspan4165"
         x="-1.0101525"
         y="179.59038">Pump</tspan></text>
    <text
       xml:space="preserve"
       style="font-size:40px;font-style:normal;font-weight:normal;line-height:125%;letter-spacing:0px;word-spacing:0px;fill:#000000;fill-opacity:1;stroke:none;font-family:Sans"
       x="393.1647"
       y="59.910885"
       id="text4167"
       sodipodi:linespacing="125%"><tspan
         sodipodi:role="line"
         id="tspan4169"
         x="393.1647"
         y="59.910885">Air</tspan></text>
    <text
       xml:space="preserve"
       style="font-size:40px;font-style:normal;font-weight:normal;line-height:125%;letter-spacing:0px;word-spacing:0px;fill:#000000;fill-opacity:1;stroke:none;font-family:Sans"
       x="320.34964"
       y="301.1553"
       id="text4171"
       sodipodi:linespacing="125%"><tspan
         sodipodi:role="line"
         id="tspan4173"
         x="320.34964"
         y="301.1553">Windkessel</tspan></text>
    <path
       style="fill:none;stroke:#000000;stroke-width:1;stroke-linecap:butt;stroke-linejoin:miter;stroke-miterlimit:4;stroke-opacity:1;stroke-dasharray:12, 12;stroke-dashoffset:0"
       d="M 827.31494,113.42539 960.76095,82.330384"
       id="path4262"
       inkscape:connector-curvature="0"
       sodipodi:nodetypes="cc" />
    <path
       style="fill:none;stroke:#000000;stroke-width:1;stroke-linecap:butt;stroke-linejoin:miter;stroke-miterlimit:4;stroke-opacity:1;stroke-dasharray:12, 12;stroke-dashoffset:0"
       d="M 827.31494,116.70839 965.21252,104.26531"
       id="path4264"
       inkscape:connector-curvature="0"
       sodipodi:nodetypes="cc" />
    <path
       style="fill:none;stroke:#000000;stroke-width:1;stroke-linecap:butt;stroke-linejoin:miter;stroke-miterlimit:4;stroke-opacity:1;stroke-dasharray:12, 12;stroke-dashoffset:0"
       d="m 826.55732,120.49646 137.00999,13.04532"
       id="path4266"
       inkscape:connector-curvature="0"
       sodipodi:nodetypes="cc" />
    <path
       style="fill:none;stroke:#000000;stroke-width:1;stroke-linecap:butt;stroke-linejoin:miter;stroke-miterlimit:4;stroke-opacity:1;stroke-dasharray:12, 12;stroke-dashoffset:0"
       d="M 825.54717,123.77945 959.98106,166.4225"
       id="path4268"
       inkscape:connector-curvature="0"
       sodipodi:nodetypes="cc" />
    <path
       style="fill:none;stroke:#000000;stroke-width:1;stroke-linecap:butt;stroke-linejoin:miter;stroke-miterlimit:4;stroke-opacity:1;stroke-dasharray:12, 12;stroke-dashoffset:0"
       d="m 824.53702,127.56753 123.2386,74.2462"
       id="path4270"
       inkscape:connector-curvature="0"
       sodipodi:nodetypes="cc" />
    <path
       id="path4007-0-9"
       style="fill:#000000;stroke:#000000;display:inline"
       d="m 372.62965,92.4005 -3.08333,0 c -2.07571,0 -2.9144,-0.4085 -2.56639,-1.25 1.91054,-4.6197 6.64972,-20.129299 6.64972,-21.761999 0,-4.0128 1.71729,-1.8277 2.95657,3.762 0.70116,3.1625 2.34776,8.616099 3.65913,12.119099 1.31136,3.5029 2.3843,6.5404 2.3843,6.75 0,0.2095 -1.35,0.3809 -3,0.3809 l -3,0 0.27389,41.03963 3.08333,0 c 2.07571,0 2.9144,0.4085 2.56639,1.25 -1.91054,4.6197 -6.64972,20.1293 -6.64972,21.762 0,4.0128 -1.71729,1.8277 -2.95657,-3.762 -0.70116,-3.1625 -2.34776,-8.6161 -3.65913,-12.1191 -1.31136,-3.5029 -2.3843,-6.5404 -2.3843,-6.75 0,-0.2095 1.35,-0.3809 3,-0.3809 l 3,0 z"
       inkscape:connector-curvature="0"
       sodipodi:nodetypes="csssssssccssssssscc" />
    <path
       id="path4007-0-4"
       style="fill:#000000;stroke:#000000;display:inline"
       d="m 470.61445,93.288101 -3.08333,0 c -2.07571,0 -2.9144,-0.4085 -2.56639,-1.25 1.91054,-4.6197 6.64972,-20.1293 6.64972,-21.762 0,-4.0128 1.71729,-1.8277 2.95657,3.762 0.70116,3.1625 2.34776,8.6161 3.65913,12.1191 1.31136,3.5029 2.3843,6.5404 2.3843,6.75 0,0.2095 -1.35,0.3809 -3,0.3809 l -3,0 0.27389,41.039629 3.08333,0 c 2.07571,0 2.9144,0.4085 2.56639,1.25 -1.91054,4.6197 -6.64972,20.1293 -6.64972,21.762 0,4.0128 -1.71729,1.8277 -2.95657,-3.762 -0.70116,-3.1625 -2.34776,-8.6161 -3.65913,-12.1191 -1.31136,-3.5029 -2.3843,-6.5404 -2.3843,-6.75 0,-0.2095 1.35,-0.3809 3,-0.3809 l 3,0 z"
       inkscape:connector-curvature="0"
       sodipodi:nodetypes="csssssssccssssssscc" />
    <path
       id="path4007-0-8"
       style="fill:#000000;stroke:#000000;display:inline"
       d="m 420.7202,93.270937 -3.08333,0 c -2.07571,0 -2.9144,-0.4085 -2.56639,-1.249999 1.91054,-4.6197 6.64972,-20.1293 6.64972,-21.762 0,-4.0128 1.71729,-1.8277 2.95657,3.762 0.70116,3.1625 2.34776,8.6161 3.65913,12.1191 1.31136,3.5029 2.3843,6.540399 2.3843,6.749999 0,0.2095 -1.35,0.3809 -3,0.3809 l -3,0 0.27389,41.039633 3.08333,0 c 2.07571,0 2.9144,0.4085 2.56639,1.25 -1.91054,4.6197 -6.64972,20.1293 -6.64972,21.762 0,4.0128 -1.71729,1.8277 -2.95657,-3.762 -0.70116,-3.1625 -2.34776,-8.6161 -3.65913,-12.1191 -1.31136,-3.5029 -2.3843,-6.5404 -2.3843,-6.75 0,-0.2095 1.35,-0.3809 3,-0.3809 l 3,0 z"
       inkscape:connector-curvature="0"
       sodipodi:nodetypes="csssssssccssssssscc" />
    <path
       style="fill:#ff0000;fill-opacity:1;stroke:#000000;stroke-width:1.33574402;stroke-linecap:round;stroke-miterlimit:4;stroke-dasharray:none;stroke-dashoffset:0"
       d="M 124.23257,760.04476 C 97.246536,757.63405 68.280619,751.63288 51.434526,744.9624 30.92504,736.84135 17.863285,728.84629 -1.7860746,712.38621 c -6.4968987,-5.4424 -12.9905904,-10.61665 -14.4304294,-11.49833 -3.501279,-2.14402 -9.544571,-12.23984 -11.664702,-19.48685 -0.94324,-3.22414 -3.018313,-7.88833 -4.611299,-10.36489 l -2.89633,-4.50282 -127.897735,0.34681 -214.26576,-0.15826 2.3e-4,-26.45896 2.4e-4,-26.45897 213.38224,0.74895 127.014204,0.24386 3.067046,-8.77734 c 1.68688,-4.82753 4.726147,-11.66437 6.753926,-15.19297 8.514777,-14.81677 8.361144,-14.14235 12.719743,-55.83815 2.303873,-22.03978 4.9942458,-42.00446 5.9785983,-44.36596 2.0675742,-4.96023 5.6684703,-6.30269 16.6589483,-6.2107 9.0435774,0.0757 15.3237104,3.14552 18.9262994,9.25148 3.402615,5.76699 5.49551,5.78866 9.015377,0.0934 3.079575,-4.98285 3.544945,-12.60479 1.350843,-22.1245 -1.256079,-5.44987 -1.101576,-6.182 1.948303,-9.23188 l 3.312592,-3.31258 4.809542,4.22284 c 9.172704,8.05374 17.321289,4.76496 20.977987,-8.46672 1.553509,-5.62134 2.396374,-6.74323 5.323803,-7.08614 3.188159,-0.37346 3.575585,0.12624 4.64768,5.99444 1.521325,8.32708 4.645922,9.14163 10.026667,2.61386 5.474033,-6.64094 7.82001,-5.3091 7.82001,4.43951 0,6.59894 0.617329,8.50527 4.387431,13.54847 7.71729,10.32328 8.96846,12.96602 12.42355,26.24139 5.23067,20.09761 8.36566,29.15076 15.61031,45.07907 3.67559,8.08124 9.93199,23.33324 13.90312,33.89332 13.25296,35.24247 11.92314,33.98368 36.96061,34.98688 26.25007,1.05176 84.44062,-0.89552 99.71192,-3.33679 6.97925,-1.11568 31.62373,-5.6 54.7655,-9.96514 56.18903,-10.59869 69.96368,-12.29871 106.49235,-13.14296 47.262,-1.09231 67.26739,1.03479 140.6203,14.95169 20.93778,3.97243 42.27629,7.91797 47.41891,8.76788 5.48817,0.90703 38.3155,2.0036 79.4768,2.6549 38.56961,0.61029 72.0801,1.15624 74.46767,1.21321 l 4.34121,0.10357 0,25.2556 0,25.2556 -73.79988,0.63425 c -82.21414,0.70657 -74.58578,0.0371 -137.91556,12.10227 -62.01717,11.81503 -72.54289,13.10668 -113.08691,13.87735 -48.01542,0.91267 -63.75728,-0.754 -135.36148,-14.33147 -58.40244,-11.07419 -56.91061,-10.89782 -98.71016,-11.66874 l -38.60168,-0.71193 0.76441,5.18171 c 0.42043,2.84994 1.47917,9.99038 2.35276,15.86766 1.93594,13.02463 0.73721,41.6198 -2.1527,51.35116 -2.61983,8.82189 -8.19047,15.02184 -16.91954,18.83086 -8.11795,3.54236 -27.22211,4.55388 -49.09832,2.59964 l 0,0 z"
       id="path3117"
       inkscape:connector-curvature="0"
       sodipodi:nodetypes="cssssscccccccssssssssscsssssssssssssssssscccssssscssssccc" />
    <text
       xml:space="preserve"
       style="font-size:37.40083313px;font-style:normal;font-weight:normal;line-height:125%;letter-spacing:0px;word-spacing:0px;fill:#000000;fill-opacity:1;stroke:none;font-family:Sans"
       x="30.512966"
       y="654.57172"
       id="text4175"
       sodipodi:linespacing="125%"><tspan
         sodipodi:role="line"
         id="tspan4177"
         x="30.512966"
         y="654.57172">Heart</tspan></text>
    <path
       style="fill:#ff0000;fill-opacity:1;stroke:#000000;stroke-width:1.33574402;stroke-linecap:round;stroke-miterlimit:4;stroke-dasharray:none;stroke-dashoffset:0"
       d="m 949.55867,713.11679 c -30.7691,-24.82165 -67.89224,-41.72152 -101.04714,-46.00064 l -7.87577,-1.24267 0.36222,-25.4713 0.36214,-25.4713 11.52086,-1.22525 c 31.35078,-3.33418 63.51503,-19.57173 95.17175,-44.23122 l 11.01987,-8.58412 0,79.54927 c 0,43.7521 -0.22394,79.54927 -0.49762,79.54927 -0.27368,0 -4.33101,-3.09242 -9.01631,-6.87204 z"
       id="path3119"
       inkscape:connector-curvature="0"
       sodipodi:nodetypes="sscccsscsss" />
    <path
       style="fill:#000000;display:inline"
       d="m 907.82965,645.88939 0,-2.80506 -19.63544,0 c -19.01206,0 -19.63544,-0.0594 -19.63544,-1.87004 0,-1.81068 0.62338,-1.87004 19.63544,-1.87004 l 19.63544,0 0,-2.88298 c 0,-1.94083 0.38195,-2.72502 1.16877,-2.39963 4.31952,1.7864 18.82132,6.21763 20.34792,6.21763 3.75206,0 1.70894,1.6057 -3.51754,2.76445 -2.95701,0.6556 -8.05624,2.19521 -11.33161,3.42137 -3.27529,1.22615 -6.11542,2.22937 -6.3114,2.22937 -0.19588,0 -0.35614,-1.26228 -0.35614,-2.80507 z"
       id="path4007"
       inkscape:connector-curvature="0" />
    <text
       xml:space="preserve"
       style="font-size:37.40083313px;font-style:normal;font-weight:normal;line-height:125%;letter-spacing:0px;word-spacing:0px;fill:#000000;fill-opacity:1;stroke:none;font-family:Sans"
       x="321.70514"
       y="653.2359"
       id="text4179"
       sodipodi:linespacing="125%"><tspan
         sodipodi:role="line"
         id="tspan4181"
         x="321.70514"
         y="653.2359">Elastic arteries</tspan></text>
    <path
       style="fill:#000000;display:inline"
       d="m -118.15536,641.88216 0,-2.80507 -45.81602,0 c -45.19268,0 -45.81603,-0.0254 -45.81603,-1.87004 0,-1.8446 0.62335,-1.87004 45.81603,-1.87004 l 45.81602,0 0,-2.33755 c 0,-2.87484 0.007,-2.87482 8.27987,0.0158 3.7047,1.29434 8.93235,2.8276 11.617005,3.40722 l 4.881173,1.05386 -8.107278,2.15937 c -4.459,1.18766 -9.66469,2.81011 -11.5682,3.60543 -4.71269,1.96911 -5.10257,1.86527 -5.10257,-1.35898 z"
       id="path4009"
       inkscape:connector-curvature="0" />
    <path
       style="fill:#000000;display:inline"
       d="m 243.28791,231.68243 0,-2.93951 -33,0 c -32.33333,0 -33,-0.0404 -33,-2 0,-1.9596 0.66667,-2 33,-2 l 33,0 0,-3 c 0,-3.49334 -0.0595,-3.4756 4.78212,-1.42646 2.04483,0.86545 7.54288,2.59898 12.21788,3.8523 l 8.5,2.27876 -6,1.6735 c -3.3,0.92042 -9.0375,2.75967 -12.75,4.08721 l -6.75,2.41371 z"
       id="path3851-7"
       inkscape:connector-curvature="0" />
  </g>
</svg>
